# xmcd
#
# Track frame offsets:
#	150
#	12650
#	23590
#	38520
#	56550
#	74390
#	89272
#	105015
#	115788
#	129925
#	143600
#	160815
#	175792
#	190345
#	205017
#	219527
#	235807
#	252417
#
# Disc length: 3545 seconds
#
# Revision: 1
# Processed by: cddbd v1.5.2PL0 Copyright (c) Steve Scherf et al.
# Submitted via: EZCDAudioConverter 2.1.1.1
#
DISCID=e60dd712
DTITLE=Giwrgos Katsaros - To Xryso Saxofono
DYEAR=2015
DGENRE=Instrumental
TTITLE0=Ta Kythira Pote De Tha Ta Vroyme
TTITLE1=Hrtha Me To Voria
TTITLE2=Kathe Limani Kai Kahmos
TTITLE3=Omorfh Moy Katerina
TTITLE4=Anna
TTITLE5=Antio
TTITLE6=Kshmerwnei
TTITLE7=Odos Aristoteloys
TTITLE8=Ase Me Na Fygw
TTITLE9=Abraja Me
TTITLE10=O Aygerinos
TTITLE11=Svhse To Fws
TTITLE12=Aporw
TTITLE13=Synora H Agaph De Gnwrizei
TTITLE14=Ap To Aeroplano
TTITLE15=Kalhnyxta, Margarita
TTITLE16=Ola Gia Ton Erwta
TTITLE17=Le Meteque
EXTD=
EXTT0=
EXTT1=
EXTT2=
EXTT3=
EXTT4=
EXTT5=
EXTT6=
EXTT7=
EXTT8=
EXTT9=
EXTT10=
EXTT11=
EXTT12=
EXTT13=
EXTT14=
EXTT15=
EXTT16=
EXTT17=
PLAYORDER=
